{
	"asset":{
		"generator":"Khronos glTF Blender I/O v3.5.30",
		"version":"2.0"
	},
	"scene":0,
	"scenes":[
		{
			"name":"Scene",
			"nodes":[
				0
			]
		}
	],
	"nodes":[
		{
			"mesh":0,
			"name":"palm_tree",
			"rotation":[
				0.09444974362850189,
				0.6630978584289551,
				-0.0896294116973877,
				0.7371208071708679
			],
			"scale":[
				0.02539999969303608,
				0.02540000155568123,
				0.025400003418326378
			],
			"translation":[
				-17.620399475097656,
				7.3806352615356445,
				0.17039696872234344
			]
		}
	],
	"animations":[
		{
			"channels":[
				{
					"sampler":0,
					"target":{
						"node":0,
						"path":"translation"
					}
				},
				{
					"sampler":1,
					"target":{
						"node":0,
						"path":"rotation"
					}
				},
				{
					"sampler":2,
					"target":{
						"node":0,
						"path":"scale"
					}
				}
			],
			"name":"palm_tree",
			"samplers":[
				{
					"input":5,
					"interpolation":"LINEAR",
					"output":6
				},
				{
					"input":5,
					"interpolation":"LINEAR",
					"output":7
				},
				{
					"input":5,
					"interpolation":"LINEAR",
					"output":8
				}
			]
		}
	],
	"materials":[
		{
			"doubleSided":true,
			"name":"Palm Tree",
			"pbrMetallicRoughness":{
				"baseColorTexture":{
					"index":0,
					"texCoord":1
				},
				"metallicFactor":0,
				"roughnessFactor":0.5
			}
		}
	],
	"meshes":[
		{
			"name":"Mesh.032",
			"primitives":[
				{
					"attributes":{
						"POSITION":0,
						"TEXCOORD_0":1,
						"TEXCOORD_1":2,
						"NORMAL":3
					},
					"indices":4,
					"material":0
				}
			]
		}
	],
	"textures":[
		{
			"sampler":0,
			"source":0
		}
	],
	"images":[
		{
			"mimeType":"image/png",
			"name":"palm_tree-diffuse",
			"uri":"palm_tree-diffuse.png"
		}
	],
	"accessors":[
		{
			"bufferView":0,
			"componentType":5126,
			"count":3026,
			"max":[
				207.71200561523438,
				161.8340606689453,
				313.6900329589844
			],
			"min":[
				-198.35757446289062,
				-257.4421691894531,
				-107.95947265625
			],
			"type":"VEC3"
		},
		{
			"bufferView":1,
			"componentType":5126,
			"count":3026,
			"type":"VEC2"
		},
		{
			"bufferView":2,
			"componentType":5126,
			"count":3026,
			"type":"VEC2"
		},
		{
			"bufferView":3,
			"componentType":5126,
			"count":3026,
			"type":"VEC3"
		},
		{
			"bufferView":4,
			"componentType":5123,
			"count":9540,
			"type":"SCALAR"
		},
		{
			"bufferView":5,
			"componentType":5126,
			"count":101,
			"max":[
				3.3666666666666667
			],
			"min":[
				0.03333333333333333
			],
			"type":"SCALAR"
		},
		{
			"bufferView":6,
			"componentType":5126,
			"count":101,
			"type":"VEC3"
		},
		{
			"bufferView":7,
			"componentType":5126,
			"count":101,
			"type":"VEC4"
		},
		{
			"bufferView":8,
			"componentType":5126,
			"count":101,
			"type":"VEC3"
		}
	],
	"bufferViews":[
		{
			"buffer":0,
			"byteLength":36312,
			"byteOffset":0,
			"target":34962
		},
		{
			"buffer":0,
			"byteLength":24208,
			"byteOffset":36312,
			"target":34962
		},
		{
			"buffer":0,
			"byteLength":24208,
			"byteOffset":60520,
			"target":34962
		},
		{
			"buffer":0,
			"byteLength":36312,
			"byteOffset":84728,
			"target":34962
		},
		{
			"buffer":0,
			"byteLength":19080,
			"byteOffset":121040,
			"target":34963
		},
		{
			"buffer":0,
			"byteLength":404,
			"byteOffset":140120
		},
		{
			"buffer":0,
			"byteLength":1212,
			"byteOffset":140524
		},
		{
			"buffer":0,
			"byteLength":1616,
			"byteOffset":141736
		},
		{
			"buffer":0,
			"byteLength":1212,
			"byteOffset":143352
		}
	],
	"samplers":[
		{
			"magFilter":9729,
			"minFilter":9987
		}
	],
	"buffers":[
		{
			"byteLength":144564,
			"uri":"palm_tree.bin"
		}
	]
}
